#!OML:ASF H:\Terrain\Patient Classification 1\Animal1\Tuesday\Animal1.ASF
:FULLY-SPECIFIED
:DEGREES
2017
root 12.8552 16.5849 -12.2044 13.1195 -25.1664 2.14781
lowerback -0.75043 -2.08054 -0.0493717
upperback -10.5162 -2.82226 1.40979
thorax -10.6787 -1.35305 1.78434
lowerneck 3.86437 -11.3278 -8.46515
upperneck 7.44443 -15.2594 -2.55693
head 2.17817 -7.89872 0.384544
rclavicle -1.43125e-014 1.74931e-014
rhumerus 6.80872 -9.80182 -6.83623
rradius 22.5984
rwrist -18.1743
rhand -3.53749 7.12538
rfingers 7.12502
rthumb 22.198 -21.62
lclavicle -1.43125e-014 1.74931e-014
lhumerus -0.637737 25.7888 13.8646
lradius 29.6511
lwrist -46.7643
lhand 10.487 48.6813
lfingers 7.12502
lthumb 35.5881 75.098
rfemur -24.2987 28.4785 16.362
rtibia 23.6392
rfoot -9.98541 -34.2892
rtoes 4.89836
lfemur -14.555 -31.2098 -18.5168
ltibia 15.6656
lfoot -16.0662 25.3064
ltoes 9.99673
2018
root 12.854 16.5833 -12.2081 13.0999 -25.1503 2.20172
lowerback -0.71681 -2.09398 -0.0963161
upperback -10.5269 -2.84517 1.38365
thorax -10.7097 -1.36103 1.78647
lowerneck 3.83261 -11.3028 -8.45517
upperneck 7.53064 -15.222 -2.5273
head 2.21305 -7.88257 0.387332
rclavicle 2.84262e-014 2.38542e-015
rhumerus 6.83007 -9.80017 -6.85087
rradius 22.5181
rwrist -17.9575
rhand -3.52471 7.09686
rfingers 7.12502
rthumb 22.2103 -21.6471
lclavicle 2.84262e-014 2.38542e-015
lhumerus -0.629353 25.8236 13.8799
lradius 29.6099
lwrist -46.8665
lhand 10.3233 48.6956
lfingers 7.12502
lthumb 35.4329 75.1494
rfemur -24.3344 28.6165 16.2881
rtibia 23.6705
rfoot -9.99517 -34.5416
rtoes 5.47693
lfemur -14.5586 -31.0305 -18.5717
ltibia 15.6384
lfoot -15.9186 25.1903
ltoes 9.01868
2019
root 12.8531 16.5817 -12.2098 13.1227 -25.1592 2.20726
lowerback -0.698296 -2.09176 -0.12745
upperback -10.5633 -2.84387 1.39093
thorax -10.7608 -1.35667 1.81392
lowerneck 3.84347 -11.2468 -8.30512
upperneck 7.53073 -15.1408 -2.62856
head 2.18616 -7.8401 0.338563
rclavicle -1.10325e-014 -2.78299e-014
rhumerus 6.9177 -10.387 -7.02475
rradius 22.3466
rwrist -16.9809
rhand -3.28216 7.24081
rfingers 7.12502
rthumb 22.4431 -21.4752
lclavicle -1.10325e-014 -2.78299e-014
lhumerus -0.703282 25.724 13.8628
lradius 29.6213
lwrist -46.87
lhand 10.3082 48.4716
lfingers 7.12502
lthumb 35.4186 74.9289
rfemur -24.3393 28.515 16.3125
rtibia 23.6619
rfoot -9.52628 -34.3502
rtoes 5.04728
lfemur -14.5936 -31.0376 -18.561
ltibia 15.669
lfoot -15.9623 25.228
ltoes 8.44541
2020
root 12.8516 16.5814 -12.2103 13.1289 -25.2027 2.18409
lowerback -0.69943 -2.0734 -0.148111
upperback -10.5646 -2.81838 1.4119
thorax -10.7603 -1.34113 1.84569
lowerneck 3.85097 -11.1916 -8.12477
upperneck 7.48958 -15.0573 -2.79742
head 2.13766 -7.79529 0.26684
rclavicle -6.79844e-014 -3.18055e-015
rhumerus 6.80675 -10.0086 -6.84345
rradius 22.3993
rwrist -17.0934
rhand -3.2822 7.29687
rfingers 7.12502
rthumb 22.4431 -21.4192
lclavicle -6.79844e-014 -3.18055e-015
lhumerus -0.788472 25.4187 13.8092
lradius 29.6277
lwrist -46.6556
lhand 10.2861 48.308
lfingers 7.12502
lthumb 35.3977 74.7703
rfemur -24.3135 28.4318 16.3575
rtibia 23.6417
rfoot -9.60426 -34.0383
rtoes 5.19487
lfemur -14.6012 -31.2653 -18.508
ltibia 15.7092
lfoot -16.1854 25.3741
ltoes 9.36562
2021
root 12.8521 16.5828 -12.213 13.2251 -25.1887 2.11044
lowerback -0.754966 -2.08208 -0.0609095
upperback -10.5744 -2.82438 1.43325
thorax -10.741 -1.35147 1.81835
lowerneck 3.80684 -11.1752 -8.05612
upperneck 7.51262 -15.0233 -2.92
head 2.13507 -7.77969 0.217537
rclavicle 8.77634e-014 3.18055e-015
rhumerus 6.61287 -8.89385 -6.45966
rradius 22.5563
rwrist -17.8999
rhand -3.62813 7.32237
rfingers 7.12502
rthumb 22.111 -21.4334
lclavicle 8.77634e-014 3.18055e-015
lhumerus -0.827617 25.2499 13.7668
lradius 29.5106
lwrist -46.5647
lhand 10.1474 48.4089
lfingers 7.12502
lthumb 35.2661 74.9024
rfemur -24.4098 28.5711 16.3485
rtibia 23.6039
rfoot -9.62661 -34.3061
rtoes 4.839
lfemur -14.7491 -31.2555 -18.3676
ltibia 15.7644
lfoot -16.1611 25.3527
ltoes 9.73987
2022
root 12.853 16.5836 -12.2155 13.3305 -25.2279 2.07016
lowerback -0.861218 -2.07785 0.0228418
upperback -10.5731 -2.81707 1.41261
thorax -10.6808 -1.358 1.74396
lowerneck 3.80154 -11.1689 -8.0506
upperneck 7.46535 -15.018 -2.85764
head 2.12515 -7.77403 0.237161
rclavicle 7.07673e-014 2.38542e-015
rhumerus 6.45744 -8.31526 -6.33208
rradius 22.6061
rwrist -18.0435
rhand -4.14911 7.33307
rfingers 7.12502
rthumb 21.6108 -21.481
lclavicle 7.07673e-014 2.38542e-015
lhumerus -0.845347 25.0573 13.6941
lradius 29.3811
lwrist -46.4702
lhand 9.92246 48.786
lfingers 7.12502
lthumb 35.0528 75.3297
rfemur -24.5337 28.6623 16.3017
rtibia 23.5373
rfoot -9.29447 -34.5765
rtoes 3.83208
lfemur -14.9262 -31.0889 -18.2946
ltibia 15.8612
lfoot -15.8957 25.3849
ltoes 8.4275
2023
root 12.8518 16.5841 -12.2164 13.3368 -25.321 2.03107
lowerback -0.912939 -2.0288 0.036977
upperback -10.5188 -2.75043 1.39946
thorax -10.5903 -1.32818 1.7118
lowerneck 3.73383 -11.1734 -8.32286
upperneck 7.51813 -15.0385 -2.48568
head 2.21204 -7.78663 0.38015
rclavicle -4.59193e-014 -8.74653e-015
rhumerus 6.13374 -7.50089 -6.08072
rradius 22.7317
rwrist -18.2054
rhand -5.04428 7.10296
rfingers 7.12502
rthumb 20.7509 -21.8075
lclavicle -4.59193e-014 -8.74653e-015
lhumerus -0.817381 24.9003 13.715
lradius 29.3113
lwrist -46.4704
lhand 9.60593 48.6454
lfingers 7.12502
lthumb 34.7525 75.2589
rfemur -24.5164 28.7215 16.3237
rtibia 23.4831
rfoot -9.0758 -34.3737
rtoes 4.28653
lfemur -14.9276 -31.0421 -18.2845
ltibia 15.9288
lfoot -16.0172 25.4048
ltoes 8.74939
